<svg width="32" height="32" viewBox="0 0 32 32" fill="none" xmlns="http://www.w3.org/2000/svg">
<path d="M15.9993 2.66602C8.63565 2.66602 2.66602 8.19213 2.66602 15.0082C2.66602 18.886 4.59828 22.346 7.61929 24.6088V29.3327L12.1696 26.8343C13.3824 27.1705 14.6681 27.351 15.9993 27.351C23.363 27.351 29.3327 21.8249 29.3327 15.0082C29.3327 8.19157 23.363 2.66602 15.9993 2.66602ZM17.4035 19.2171L13.9548 15.6705L7.31399 19.3066L14.5952 11.6577L18.0439 15.2043L24.6853 11.5688L17.4035 19.2171Z" fill="#0086FF"/>
<path d="M17.404 19.2147L13.9553 15.6681L7.31445 19.3042L14.5956 11.6553L18.0443 15.202L24.6857 11.5664L17.404 19.2147Z" fill="white"/>
</svg>
